<svg width="44" height="56" viewBox="0 0 44 56" fill="none" xmlns="http://www.w3.org/2000/svg">
<mask id="mask0_2_12" style="mask-type:luminance" maskUnits="userSpaceOnUse" x="7" y="8" width="30" height="40">
<path d="M12.4545 8.90909H31.5455C32.9921 8.90909 34.3795 9.48377 35.4024 10.5067C36.4253 11.5296 37 12.917 37 14.3636V34.8182C37 38.0731 35.707 41.1947 33.4054 43.4963C31.1038 45.7979 27.9822 47.0909 24.7273 47.0909H19.2727C16.0178 47.0909 12.8962 45.7979 10.5946 43.4963C8.29302 41.1947 7 38.0731 7 34.8182L7 14.3636C7 12.917 7.57468 11.5296 8.5976 10.5067C9.62053 9.48377 11.0079 8.90909 12.4545 8.90909Z" fill="white"/>
</mask>
<g mask="url(#mask0_2_12)">
<path d="M37 8.90909H7V18.4545H37V8.90909Z" fill="#FFF9F2"/>
<path d="M37 19.8182H7V28H37V19.8182Z" fill="#F2A93B"/>
<path d="M37 29.3636H7V37.5455H37V29.3636Z" fill="#E0396B"/>
<path d="M37 38.9091H7V47.0909H37V38.9091Z" fill="#5A6ACF"/>
</g>
</svg>
